# xmcd CD database file
#
# Track frame offsets:
#	150
#	14726
#	35751
#	59577
#	90475
#	109923
#	130554
#	149036
#	165422
#	180171
#	196097
#	211209
#	227671
#	246849
#	279929
#	311880
#	322712
#	339956
#
# Disc length: 4702 seconds
#
# Revision: 0
# Processed by: cddbd v1.5.2PL0 Copyright (c) Steve Scherf et al.
# Submitted via: CDex 1.51
#
DISCID=f6125c12
DTITLE=Jim Brickman - Grace (UK Edition)
DYEAR=2005
DGENRE=New Age
TTITLE0=Amazing Grace
TTITLE1=Israel
TTITLE2=Crown Him With Many Crowns
TTITLE3=Joyful
TTITLE4=Ave Maria
TTITLE5=Jesu
TTITLE6=How Great Thou Art
TTITLE7=Heaven
TTITLE8=Seventh Day
TTITLE9=Be Thou Near to Me
TTITLE10=O Sacred Head Now Wounded
TTITLE11=Holy, Holy, Holy
TTITLE12=Hear Me (Tears Into Wine)
TTITLE13=Amazing Grace
TTITLE14=Hear Me vs Be Thou Near to Me
TTITLE15=Israel
TTITLE16=Joyful
TTITLE17=Crown Him With Many Crowns
EXTD=YEAR: 2005
EXTT0=
EXTT1=
EXTT2=
EXTT3=
EXTT4=
EXTT5=
EXTT6=
EXTT7=
EXTT8=
EXTT9=
EXTT10=
EXTT11=
EXTT12=
EXTT13=
EXTT14=
EXTT15=
EXTT16=
EXTT17=
PLAYORDER=
